<svg width="2225" height="2230" viewBox="0 0 2225 2230" fill="none" xmlns="http://www.w3.org/2000/svg">
<path fill-rule="evenodd" clip-rule="evenodd" d="M1876.86 1498.87L1581.51 2229.87L852.035 1935.15L1109.92 1296.86C1130.61 1245.66 1188.89 1220.92 1240.1 1241.61L1876.86 1498.87L1876.86 1498.87ZM662.27 1006.89C863.71 1088.27 961.032 1317.55 879.645 1518.99L879.029 1520.51C797.642 1721.95 568.366 1819.28 366.927 1737.89C165.487 1656.5 68.1657 1427.22 149.552 1225.79L150.168 1224.26C231.555 1022.82 460.831 925.5 662.27 1006.89V1006.89ZM1372.97 294.852L1115.08 933.135C1094.39 984.343 1036.11 1009.08 984.903 988.392L348.145 731.125L643.489 0.124268L1372.97 294.852V294.852ZM2224.34 638.828L1928.99 1369.83L1292.23 1112.56C1241.03 1091.87 1216.29 1033.59 1236.98 982.383L1494.86 344.1L2224.34 638.828Z" fill="url(#paint0_linear)"/>
<defs>
<linearGradient id="paint0_linear" x1="653.59" y1="4.20557" x2="1585.66" y2="2219.8" gradientUnits="userSpaceOnUse">
<stop stop-color="#FF8F71"/>
<stop offset="1" stop-color="#FF3E55"/>
</linearGradient>
</defs>
</svg>
